<mxfile host="app.diagrams.net" modified="2023-04-29T15:42:35.144Z" agent="5.0 (Windows NT 10.0; Win64; x64) AppleWebKit/537.36 (KHTML, like Gecko) Chrome/112.0.0.0 Safari/537.36 Edg/112.0.1722.58" etag="hHMSzkptJo-ZeNL01lSy" version="21.0.8" type="github">
  <diagram id="C5RBs43oDa-KdzZeNtuy" name="Page-1">
    <mxGraphModel dx="2021" dy="636" grid="1" gridSize="10" guides="1" tooltips="1" connect="1" arrows="1" fold="1" page="1" pageScale="1" pageWidth="827" pageHeight="1169" math="0" shadow="0">
      <root>
        <mxCell id="WIyWlLk6GJQsqaUBKTNV-0" />
        <mxCell id="WIyWlLk6GJQsqaUBKTNV-1" parent="WIyWlLk6GJQsqaUBKTNV-0" />
        <mxCell id="G0qrcTiUP46AO4iO0_e4-3" value="" style="edgeStyle=orthogonalEdgeStyle;rounded=0;orthogonalLoop=1;jettySize=auto;html=1;" edge="1" parent="WIyWlLk6GJQsqaUBKTNV-1" source="G0qrcTiUP46AO4iO0_e4-1" target="G0qrcTiUP46AO4iO0_e4-2">
          <mxGeometry relative="1" as="geometry">
            <Array as="points">
              <mxPoint x="380" y="160" />
              <mxPoint x="380" y="160" />
            </Array>
          </mxGeometry>
        </mxCell>
        <mxCell id="G0qrcTiUP46AO4iO0_e4-1" value="Start" style="strokeWidth=2;html=1;shape=mxgraph.flowchart.start_1;whiteSpace=wrap;fillColor=#f5f5f5;strokeColor=#666666;fontColor=#333333;" vertex="1" parent="WIyWlLk6GJQsqaUBKTNV-1">
          <mxGeometry x="330" y="60" width="100" height="60" as="geometry" />
        </mxCell>
        <mxCell id="G0qrcTiUP46AO4iO0_e4-65" value="" style="edgeStyle=orthogonalEdgeStyle;rounded=0;orthogonalLoop=1;jettySize=auto;html=1;" edge="1" parent="WIyWlLk6GJQsqaUBKTNV-1" source="G0qrcTiUP46AO4iO0_e4-2" target="G0qrcTiUP46AO4iO0_e4-55">
          <mxGeometry relative="1" as="geometry" />
        </mxCell>
        <mxCell id="G0qrcTiUP46AO4iO0_e4-2" value="&lt;font style=&quot;font-size: 15px;&quot;&gt;登入頁面&lt;/font&gt;" style="rounded=1;whiteSpace=wrap;html=1;absoluteArcSize=1;arcSize=14;strokeWidth=2;fillColor=#dae8fc;strokeColor=#6c8ebf;" vertex="1" parent="WIyWlLk6GJQsqaUBKTNV-1">
          <mxGeometry x="330" y="200" width="100" height="80" as="geometry" />
        </mxCell>
        <mxCell id="G0qrcTiUP46AO4iO0_e4-53" value="" style="edgeStyle=orthogonalEdgeStyle;rounded=0;orthogonalLoop=1;jettySize=auto;html=1;" edge="1" parent="WIyWlLk6GJQsqaUBKTNV-1" source="G0qrcTiUP46AO4iO0_e4-6" target="G0qrcTiUP46AO4iO0_e4-8">
          <mxGeometry relative="1" as="geometry" />
        </mxCell>
        <mxCell id="G0qrcTiUP46AO4iO0_e4-6" value="&lt;font style=&quot;font-size: 15px;&quot;&gt;輸入帳號密碼&lt;/font&gt;" style="shape=parallelogram;html=1;strokeWidth=2;perimeter=parallelogramPerimeter;whiteSpace=wrap;rounded=1;arcSize=12;size=0.23;fillColor=#fff2cc;strokeColor=#d6b656;" vertex="1" parent="WIyWlLk6GJQsqaUBKTNV-1">
          <mxGeometry x="308.75" y="830" width="142.5" height="90" as="geometry" />
        </mxCell>
        <mxCell id="G0qrcTiUP46AO4iO0_e4-12" value="" style="edgeStyle=orthogonalEdgeStyle;rounded=0;orthogonalLoop=1;jettySize=auto;html=1;" edge="1" parent="WIyWlLk6GJQsqaUBKTNV-1" source="G0qrcTiUP46AO4iO0_e4-8" target="G0qrcTiUP46AO4iO0_e4-11">
          <mxGeometry relative="1" as="geometry" />
        </mxCell>
        <mxCell id="G0qrcTiUP46AO4iO0_e4-8" value="&lt;font style=&quot;font-size: 15px;&quot;&gt;API: /api/User/login&lt;/font&gt;" style="whiteSpace=wrap;html=1;fillColor=#b1ddf0;strokeColor=#10739e;strokeWidth=2;rounded=1;arcSize=12;" vertex="1" parent="WIyWlLk6GJQsqaUBKTNV-1">
          <mxGeometry x="300" y="990" width="160" height="60" as="geometry" />
        </mxCell>
        <mxCell id="G0qrcTiUP46AO4iO0_e4-14" value="YES" style="edgeStyle=orthogonalEdgeStyle;rounded=0;orthogonalLoop=1;jettySize=auto;html=1;labelPosition=center;verticalLabelPosition=middle;align=center;verticalAlign=middle;entryX=0.5;entryY=0;entryDx=0;entryDy=0;" edge="1" parent="WIyWlLk6GJQsqaUBKTNV-1" source="G0qrcTiUP46AO4iO0_e4-11" target="G0qrcTiUP46AO4iO0_e4-21">
          <mxGeometry relative="1" as="geometry">
            <mxPoint x="160" y="1310" as="targetPoint" />
          </mxGeometry>
        </mxCell>
        <mxCell id="G0qrcTiUP46AO4iO0_e4-19" value="" style="edgeStyle=orthogonalEdgeStyle;rounded=0;orthogonalLoop=1;jettySize=auto;html=1;" edge="1" parent="WIyWlLk6GJQsqaUBKTNV-1" source="G0qrcTiUP46AO4iO0_e4-11" target="G0qrcTiUP46AO4iO0_e4-18">
          <mxGeometry relative="1" as="geometry" />
        </mxCell>
        <mxCell id="G0qrcTiUP46AO4iO0_e4-20" value="NO" style="edgeLabel;html=1;align=center;verticalAlign=middle;resizable=0;points=[];" vertex="1" connectable="0" parent="G0qrcTiUP46AO4iO0_e4-19">
          <mxGeometry x="0.0835" y="1" relative="1" as="geometry">
            <mxPoint as="offset" />
          </mxGeometry>
        </mxCell>
        <mxCell id="G0qrcTiUP46AO4iO0_e4-11" value="&lt;font style=&quot;font-size: 15px;&quot;&gt;帳號密碼是否正確&lt;/font&gt;" style="strokeWidth=2;html=1;shape=mxgraph.flowchart.decision;whiteSpace=wrap;fillColor=#f0a30a;strokeColor=#BD7000;fontColor=#000000;" vertex="1" parent="WIyWlLk6GJQsqaUBKTNV-1">
          <mxGeometry x="292.5" y="1120" width="175" height="120" as="geometry" />
        </mxCell>
        <mxCell id="G0qrcTiUP46AO4iO0_e4-18" value="" style="whiteSpace=wrap;html=1;fillColor=#f0a30a;strokeColor=#BD7000;fontColor=#000000;strokeWidth=2;" vertex="1" parent="WIyWlLk6GJQsqaUBKTNV-1">
          <mxGeometry x="560" y="1310" width="120" height="60" as="geometry" />
        </mxCell>
        <mxCell id="G0qrcTiUP46AO4iO0_e4-36" value="" style="edgeStyle=orthogonalEdgeStyle;rounded=0;orthogonalLoop=1;jettySize=auto;html=1;" edge="1" parent="WIyWlLk6GJQsqaUBKTNV-1" source="G0qrcTiUP46AO4iO0_e4-21" target="G0qrcTiUP46AO4iO0_e4-23">
          <mxGeometry relative="1" as="geometry" />
        </mxCell>
        <mxCell id="G0qrcTiUP46AO4iO0_e4-39" value="" style="edgeStyle=orthogonalEdgeStyle;rounded=0;orthogonalLoop=1;jettySize=auto;html=1;" edge="1" parent="WIyWlLk6GJQsqaUBKTNV-1" source="G0qrcTiUP46AO4iO0_e4-21" target="G0qrcTiUP46AO4iO0_e4-38">
          <mxGeometry relative="1" as="geometry" />
        </mxCell>
        <mxCell id="G0qrcTiUP46AO4iO0_e4-21" value="&lt;font style=&quot;font-size: 15px;&quot;&gt;API: /api/User/login&lt;/font&gt;" style="whiteSpace=wrap;html=1;fillColor=#b1ddf0;strokeColor=#10739e;strokeWidth=2;rounded=1;arcSize=12;" vertex="1" parent="WIyWlLk6GJQsqaUBKTNV-1">
          <mxGeometry x="80" y="1310" width="160" height="60" as="geometry" />
        </mxCell>
        <mxCell id="G0qrcTiUP46AO4iO0_e4-28" value="NO" style="edgeStyle=orthogonalEdgeStyle;rounded=0;orthogonalLoop=1;jettySize=auto;html=1;" edge="1" parent="WIyWlLk6GJQsqaUBKTNV-1" source="G0qrcTiUP46AO4iO0_e4-23" target="G0qrcTiUP46AO4iO0_e4-27">
          <mxGeometry relative="1" as="geometry" />
        </mxCell>
        <mxCell id="G0qrcTiUP46AO4iO0_e4-44" value="YES" style="edgeStyle=orthogonalEdgeStyle;rounded=0;orthogonalLoop=1;jettySize=auto;html=1;" edge="1" parent="WIyWlLk6GJQsqaUBKTNV-1" source="G0qrcTiUP46AO4iO0_e4-23">
          <mxGeometry relative="1" as="geometry">
            <mxPoint x="-70" y="1560" as="targetPoint" />
          </mxGeometry>
        </mxCell>
        <mxCell id="G0qrcTiUP46AO4iO0_e4-23" value="&lt;span style=&quot;font-size: 15px;&quot;&gt;使用者是否註冊過&lt;/span&gt;" style="strokeWidth=2;html=1;shape=mxgraph.flowchart.decision;whiteSpace=wrap;fillColor=#f0a30a;strokeColor=#BD7000;fontColor=#000000;" vertex="1" parent="WIyWlLk6GJQsqaUBKTNV-1">
          <mxGeometry x="72.5" y="1420" width="175" height="120" as="geometry" />
        </mxCell>
        <mxCell id="G0qrcTiUP46AO4iO0_e4-27" value="" style="whiteSpace=wrap;html=1;fillColor=#f0a30a;strokeColor=#BD7000;fontColor=#000000;strokeWidth=2;" vertex="1" parent="WIyWlLk6GJQsqaUBKTNV-1">
          <mxGeometry x="322.5" y="1570" width="115" height="60" as="geometry" />
        </mxCell>
        <mxCell id="G0qrcTiUP46AO4iO0_e4-33" value="&lt;font style=&quot;font-size: 15px;&quot;&gt;使用者頁面&lt;/font&gt;" style="rounded=1;whiteSpace=wrap;html=1;absoluteArcSize=1;arcSize=14;strokeWidth=2;fillColor=#dae8fc;strokeColor=#6c8ebf;" vertex="1" parent="WIyWlLk6GJQsqaUBKTNV-1">
          <mxGeometry x="-290" y="1674" width="100" height="80" as="geometry" />
        </mxCell>
        <mxCell id="G0qrcTiUP46AO4iO0_e4-95" value="" style="edgeStyle=orthogonalEdgeStyle;rounded=0;orthogonalLoop=1;jettySize=auto;html=1;" edge="1" parent="WIyWlLk6GJQsqaUBKTNV-1" source="G0qrcTiUP46AO4iO0_e4-38" target="G0qrcTiUP46AO4iO0_e4-94">
          <mxGeometry relative="1" as="geometry" />
        </mxCell>
        <mxCell id="G0qrcTiUP46AO4iO0_e4-38" value="&lt;font style=&quot;font-size: 15px;&quot;&gt;使用者資料&lt;/font&gt;" style="strokeWidth=2;html=1;shape=mxgraph.flowchart.database;whiteSpace=wrap;fillColor=#d5e8d4;strokeColor=#82b366;" vertex="1" parent="WIyWlLk6GJQsqaUBKTNV-1">
          <mxGeometry x="-100" y="1290" width="110" height="100" as="geometry" />
        </mxCell>
        <mxCell id="G0qrcTiUP46AO4iO0_e4-42" value="&lt;font style=&quot;font-size: 16px;&quot;&gt;使用者資料&lt;br&gt;verify: true&lt;/font&gt;" style="strokeWidth=2;html=1;shape=mxgraph.flowchart.stored_data;whiteSpace=wrap;fillColor=#ffe6cc;strokeColor=#d79b00;" vertex="1" parent="WIyWlLk6GJQsqaUBKTNV-1">
          <mxGeometry x="-470" y="1300" width="130" height="80" as="geometry" />
        </mxCell>
        <mxCell id="G0qrcTiUP46AO4iO0_e4-93" value="YES" style="edgeStyle=orthogonalEdgeStyle;rounded=0;orthogonalLoop=1;jettySize=auto;html=1;entryX=0.5;entryY=0;entryDx=0;entryDy=0;" edge="1" parent="WIyWlLk6GJQsqaUBKTNV-1" source="G0qrcTiUP46AO4iO0_e4-43" target="G0qrcTiUP46AO4iO0_e4-33">
          <mxGeometry relative="1" as="geometry" />
        </mxCell>
        <mxCell id="G0qrcTiUP46AO4iO0_e4-43" value="&lt;font style=&quot;font-size: 15px;&quot;&gt;信箱是否驗證過&lt;/font&gt;" style="rhombus;whiteSpace=wrap;html=1;fillColor=#f0a30a;strokeColor=#BD7000;fontColor=#000000;strokeWidth=2;" vertex="1" parent="WIyWlLk6GJQsqaUBKTNV-1">
          <mxGeometry x="-150" y="1530" width="180" height="100" as="geometry" />
        </mxCell>
        <mxCell id="G0qrcTiUP46AO4iO0_e4-98" style="edgeStyle=orthogonalEdgeStyle;rounded=0;orthogonalLoop=1;jettySize=auto;html=1;entryX=0;entryY=0.5;entryDx=0;entryDy=0;" edge="1" parent="WIyWlLk6GJQsqaUBKTNV-1" source="G0qrcTiUP46AO4iO0_e4-48" target="G0qrcTiUP46AO4iO0_e4-33">
          <mxGeometry relative="1" as="geometry">
            <Array as="points">
              <mxPoint x="-350" y="1480" />
              <mxPoint x="-350" y="1710" />
              <mxPoint x="-290" y="1710" />
            </Array>
          </mxGeometry>
        </mxCell>
        <mxCell id="G0qrcTiUP46AO4iO0_e4-48" value="&lt;font style=&quot;font-size: 16px;&quot;&gt;使用者資料&lt;br&gt;verify: true&lt;/font&gt;" style="strokeWidth=2;html=1;shape=mxgraph.flowchart.stored_data;whiteSpace=wrap;fillColor=#ffe6cc;strokeColor=#d79b00;" vertex="1" parent="WIyWlLk6GJQsqaUBKTNV-1">
          <mxGeometry x="-310" y="1435" width="140" height="90" as="geometry" />
        </mxCell>
        <mxCell id="G0qrcTiUP46AO4iO0_e4-74" value="YES" style="edgeStyle=orthogonalEdgeStyle;rounded=0;orthogonalLoop=1;jettySize=auto;html=1;" edge="1" parent="WIyWlLk6GJQsqaUBKTNV-1" source="G0qrcTiUP46AO4iO0_e4-50" target="G0qrcTiUP46AO4iO0_e4-73">
          <mxGeometry relative="1" as="geometry" />
        </mxCell>
        <mxCell id="G0qrcTiUP46AO4iO0_e4-78" value="NO" style="edgeStyle=orthogonalEdgeStyle;rounded=0;orthogonalLoop=1;jettySize=auto;html=1;entryX=0.5;entryY=0;entryDx=0;entryDy=0;" edge="1" parent="WIyWlLk6GJQsqaUBKTNV-1" source="G0qrcTiUP46AO4iO0_e4-50" target="G0qrcTiUP46AO4iO0_e4-75">
          <mxGeometry relative="1" as="geometry" />
        </mxCell>
        <mxCell id="G0qrcTiUP46AO4iO0_e4-50" value="&lt;font style=&quot;font-size: 15px;&quot;&gt;使用者是否登入過&lt;/font&gt;" style="strokeWidth=2;html=1;shape=mxgraph.flowchart.decision;whiteSpace=wrap;fillColor=#f0a30a;strokeColor=#BD7000;fontColor=#000000;" vertex="1" parent="WIyWlLk6GJQsqaUBKTNV-1">
          <mxGeometry x="292.5" y="462.5" width="175" height="120" as="geometry" />
        </mxCell>
        <mxCell id="G0qrcTiUP46AO4iO0_e4-58" value="" style="edgeStyle=orthogonalEdgeStyle;rounded=0;orthogonalLoop=1;jettySize=auto;html=1;" edge="1" parent="WIyWlLk6GJQsqaUBKTNV-1" source="G0qrcTiUP46AO4iO0_e4-55" target="G0qrcTiUP46AO4iO0_e4-57">
          <mxGeometry relative="1" as="geometry" />
        </mxCell>
        <mxCell id="G0qrcTiUP46AO4iO0_e4-66" value="" style="edgeStyle=orthogonalEdgeStyle;rounded=0;orthogonalLoop=1;jettySize=auto;html=1;" edge="1" parent="WIyWlLk6GJQsqaUBKTNV-1" source="G0qrcTiUP46AO4iO0_e4-55" target="G0qrcTiUP46AO4iO0_e4-50">
          <mxGeometry relative="1" as="geometry" />
        </mxCell>
        <mxCell id="G0qrcTiUP46AO4iO0_e4-55" value="&lt;font style=&quot;font-size: 15px;&quot;&gt;API: /api/User&lt;/font&gt;" style="whiteSpace=wrap;html=1;fillColor=#b1ddf0;strokeColor=#10739e;strokeWidth=2;rounded=1;arcSize=12;" vertex="1" parent="WIyWlLk6GJQsqaUBKTNV-1">
          <mxGeometry x="300" y="340" width="160" height="60" as="geometry" />
        </mxCell>
        <mxCell id="G0qrcTiUP46AO4iO0_e4-80" value="" style="edgeStyle=orthogonalEdgeStyle;rounded=0;orthogonalLoop=1;jettySize=auto;html=1;" edge="1" parent="WIyWlLk6GJQsqaUBKTNV-1" source="G0qrcTiUP46AO4iO0_e4-57" target="G0qrcTiUP46AO4iO0_e4-79">
          <mxGeometry relative="1" as="geometry" />
        </mxCell>
        <mxCell id="G0qrcTiUP46AO4iO0_e4-57" value="&lt;font style=&quot;font-size: 15px;&quot;&gt;使用者資料&lt;/font&gt;" style="strokeWidth=2;html=1;shape=mxgraph.flowchart.database;whiteSpace=wrap;fillColor=#d5e8d4;strokeColor=#82b366;" vertex="1" parent="WIyWlLk6GJQsqaUBKTNV-1">
          <mxGeometry x="70" y="320" width="110" height="100" as="geometry" />
        </mxCell>
        <mxCell id="G0qrcTiUP46AO4iO0_e4-73" value="&lt;font style=&quot;font-size: 15px;&quot;&gt;使用者頁面&lt;/font&gt;" style="rounded=1;whiteSpace=wrap;html=1;absoluteArcSize=1;arcSize=14;strokeWidth=2;fillColor=#dae8fc;strokeColor=#6c8ebf;" vertex="1" parent="WIyWlLk6GJQsqaUBKTNV-1">
          <mxGeometry x="90" y="482.5" width="110" height="80" as="geometry" />
        </mxCell>
        <mxCell id="G0qrcTiUP46AO4iO0_e4-76" value="" style="edgeStyle=orthogonalEdgeStyle;rounded=0;orthogonalLoop=1;jettySize=auto;html=1;" edge="1" parent="WIyWlLk6GJQsqaUBKTNV-1" source="G0qrcTiUP46AO4iO0_e4-75" target="G0qrcTiUP46AO4iO0_e4-6">
          <mxGeometry relative="1" as="geometry" />
        </mxCell>
        <mxCell id="G0qrcTiUP46AO4iO0_e4-75" value="&lt;font style=&quot;font-size: 15px;&quot;&gt;登入頁面&lt;/font&gt;" style="rounded=1;whiteSpace=wrap;html=1;absoluteArcSize=1;arcSize=14;strokeWidth=2;fillColor=#dae8fc;strokeColor=#6c8ebf;" vertex="1" parent="WIyWlLk6GJQsqaUBKTNV-1">
          <mxGeometry x="330" y="700" width="100" height="80" as="geometry" />
        </mxCell>
        <mxCell id="G0qrcTiUP46AO4iO0_e4-85" value="" style="edgeStyle=orthogonalEdgeStyle;rounded=0;orthogonalLoop=1;jettySize=auto;html=1;" edge="1" parent="WIyWlLk6GJQsqaUBKTNV-1" source="G0qrcTiUP46AO4iO0_e4-79" target="G0qrcTiUP46AO4iO0_e4-84">
          <mxGeometry relative="1" as="geometry" />
        </mxCell>
        <mxCell id="G0qrcTiUP46AO4iO0_e4-90" style="edgeStyle=orthogonalEdgeStyle;rounded=0;orthogonalLoop=1;jettySize=auto;html=1;entryX=0;entryY=0.5;entryDx=0;entryDy=0;entryPerimeter=0;" edge="1" parent="WIyWlLk6GJQsqaUBKTNV-1" source="G0qrcTiUP46AO4iO0_e4-79" target="G0qrcTiUP46AO4iO0_e4-89">
          <mxGeometry relative="1" as="geometry">
            <mxPoint x="-180" y="740" as="targetPoint" />
            <Array as="points">
              <mxPoint x="-190" y="370" />
              <mxPoint x="-190" y="732" />
            </Array>
          </mxGeometry>
        </mxCell>
        <mxCell id="G0qrcTiUP46AO4iO0_e4-79" value="SELECT" style="rounded=1;whiteSpace=wrap;html=1;fillColor=#d5e8d4;strokeColor=#82b366;strokeWidth=2;" vertex="1" parent="WIyWlLk6GJQsqaUBKTNV-1">
          <mxGeometry x="-125" y="340" width="120" height="60" as="geometry" />
        </mxCell>
        <mxCell id="G0qrcTiUP46AO4iO0_e4-92" value="" style="edgeStyle=orthogonalEdgeStyle;rounded=0;orthogonalLoop=1;jettySize=auto;html=1;" edge="1" parent="WIyWlLk6GJQsqaUBKTNV-1" source="G0qrcTiUP46AO4iO0_e4-84" target="G0qrcTiUP46AO4iO0_e4-73">
          <mxGeometry relative="1" as="geometry" />
        </mxCell>
        <mxCell id="G0qrcTiUP46AO4iO0_e4-84" value="&lt;font style=&quot;font-size: 15px;&quot;&gt;使用者資料&lt;br&gt;verify: true&lt;/font&gt;" style="strokeWidth=2;html=1;shape=mxgraph.flowchart.stored_data;whiteSpace=wrap;fillColor=#ffe6cc;strokeColor=#d79b00;" vertex="1" parent="WIyWlLk6GJQsqaUBKTNV-1">
          <mxGeometry x="-125" y="480" width="120" height="85" as="geometry" />
        </mxCell>
        <mxCell id="G0qrcTiUP46AO4iO0_e4-91" style="edgeStyle=orthogonalEdgeStyle;rounded=0;orthogonalLoop=1;jettySize=auto;html=1;entryX=0;entryY=0.5;entryDx=0;entryDy=0;" edge="1" parent="WIyWlLk6GJQsqaUBKTNV-1" source="G0qrcTiUP46AO4iO0_e4-89" target="G0qrcTiUP46AO4iO0_e4-75">
          <mxGeometry relative="1" as="geometry">
            <Array as="points">
              <mxPoint x="80" y="740" />
              <mxPoint x="80" y="740" />
            </Array>
          </mxGeometry>
        </mxCell>
        <mxCell id="G0qrcTiUP46AO4iO0_e4-89" value="&lt;font style=&quot;font-size: 15px;&quot;&gt;使用者資料&lt;br&gt;verify: false&lt;/font&gt;" style="strokeWidth=2;html=1;shape=mxgraph.flowchart.stored_data;whiteSpace=wrap;fillColor=#ffe6cc;strokeColor=#d79b00;" vertex="1" parent="WIyWlLk6GJQsqaUBKTNV-1">
          <mxGeometry x="-125" y="690" width="120" height="85" as="geometry" />
        </mxCell>
        <mxCell id="G0qrcTiUP46AO4iO0_e4-96" value="" style="edgeStyle=orthogonalEdgeStyle;rounded=0;orthogonalLoop=1;jettySize=auto;html=1;" edge="1" parent="WIyWlLk6GJQsqaUBKTNV-1" source="G0qrcTiUP46AO4iO0_e4-94" target="G0qrcTiUP46AO4iO0_e4-48">
          <mxGeometry relative="1" as="geometry" />
        </mxCell>
        <mxCell id="G0qrcTiUP46AO4iO0_e4-97" value="" style="edgeStyle=orthogonalEdgeStyle;rounded=0;orthogonalLoop=1;jettySize=auto;html=1;" edge="1" parent="WIyWlLk6GJQsqaUBKTNV-1" source="G0qrcTiUP46AO4iO0_e4-94" target="G0qrcTiUP46AO4iO0_e4-42">
          <mxGeometry relative="1" as="geometry" />
        </mxCell>
        <mxCell id="G0qrcTiUP46AO4iO0_e4-94" value="&lt;font style=&quot;font-size: 15px;&quot;&gt;SELECT&lt;/font&gt;" style="rounded=1;whiteSpace=wrap;html=1;fillColor=#d5e8d4;strokeColor=#82b366;strokeWidth=2;" vertex="1" parent="WIyWlLk6GJQsqaUBKTNV-1">
          <mxGeometry x="-300" y="1310" width="120" height="60" as="geometry" />
        </mxCell>
      </root>
    </mxGraphModel>
  </diagram>
</mxfile>
